HIERARCHY
ROOT hip
{
  OFFSET 0 0 0
  CHANNELS 6 Xposition Yposition Zposition Zrotation Yrotation Xrotation
  JOINT abdomen
  {
    OFFSET 0 20.6881 -0.73152
    CHANNELS 3 Zrotation Xrotation Yrotation
    JOINT chest
    {
      OFFSET 0 11.7043 -0.48768
      CHANNELS 3 Zrotation Xrotation Yrotation
      JOINT neck
      {
        OFFSET 0 22.1894 -2.19456
        CHANNELS 3 Zrotation Xrotation Yrotation
        JOINT head
        {
          OFFSET -0.24384 7.07133 1.2192
          CHANNELS 3 Zrotation Xrotation Yrotation
          JOINT leftEye
          {
            OFFSET 4.14528 8.04674 8.04672
            CHANNELS 3 Zrotation Xrotation Yrotation
            End Site
            {
              OFFSET 1 0 0
            }
          }
          JOINT rightEye
          {
            OFFSET -3.6576 8.04674 8.04672
            CHANNELS 3 Zrotation Xrotation Yrotation
            End Site
            {
              OFFSET 1 0 0
            }
          }
        }
      }
      JOINT rCollar
      {
        OFFSET -2.68224 19.2634 -4.8768
        CHANNELS 3 Zrotation Xrotation Yrotation
        JOINT rShldr
        {
          OFFSET -8.77824 -1.95073 1.46304
          CHANNELS 3 Zrotation Xrotation Yrotation
          JOINT rForeArm
          {
            OFFSET -28.1742 -1.7115 0.48768
            CHANNELS 3 Zrotation Xrotation Yrotation
            JOINT rHand
            {
              OFFSET -22.5879 0.773209 7.07136
              CHANNELS 3 Zrotation Xrotation Yrotation
              JOINT rThumb1
              {
                OFFSET -1.2192 -0.487915 3.41376
                CHANNELS 3 Zrotation Xrotation Yrotation
                JOINT rThumb2
                {
                  OFFSET -3.37035 -0.52449 3.41376
                  CHANNELS 3 Zrotation Xrotation Yrotation
                  End Site
                  {
                    OFFSET -1.78271 -1.18214 1.43049
                  }
                }
              }
              JOINT rIndex1
              {
                OFFSET -7.75947 0.938293 5.60832
                CHANNELS 3 Zrotation Xrotation Yrotation
                JOINT rIndex2
                {
                  OFFSET -2.54057 -0.884171 1.56538
                  CHANNELS 3 Zrotation Xrotation Yrotation
                  End Site
                  {
                    OFFSET -1.62519 -0.234802 1.16502
                  }
                }
              }
              JOINT rMid1
              {
                OFFSET -8.24714 1.18213 3.41376
                CHANNELS 3 Zrotation Xrotation Yrotation
                JOINT rMid2
                {
                  OFFSET -3.10165 -0.590103 1.0647
                  CHANNELS 3 Zrotation Xrotation Yrotation
                  End Site
                  {
                    OFFSET -2.48547 -0.328903 0.83742
                  }
                }
              }
              JOINT rRing1
              {
                OFFSET -8.82822 0.546677 1.51678
                CHANNELS 3 Zrotation Xrotation Yrotation
                JOINT rRing2
                {
                  OFFSET -2.60934 -0.819778 -0.0198488
                  CHANNELS 3 Zrotation Xrotation Yrotation
                  End Site
                  {
                    OFFSET -2.33842 -0.294052 0.168128
                  }
                }
              }
              JOINT rPinky1
              {
                OFFSET -8.27202 -0.0477905 -0.4584
                CHANNELS 3 Zrotation Xrotation Yrotation
                JOINT rPinky2
                {
                  OFFSET -1.82734 -0.647385 -0.700984
                  CHANNELS 3 Zrotation Xrotation Yrotation
                  End Site
                  {
                    OFFSET -1.69225 -0.51767 -0.607171
                  }
                }
              }
            }
          }
        }
      }
      JOINT lCollar
      {
        OFFSET 2.68224 19.2634 -4.8768
        CHANNELS 3 Zrotation Xrotation Yrotation
        JOINT lShldr
        {
          OFFSET 8.77824 -1.95073 1.46304
          CHANNELS 3 Zrotation Xrotation Yrotation
          JOINT lForeArm
          {
            OFFSET 28.1742 -1.7115 0.48768
            CHANNELS 3 Zrotation Xrotation Yrotation
            JOINT lHand
            {
              OFFSET 22.5879 0.773209 7.07136
              CHANNELS 3 Zrotation Xrotation Yrotation
              JOINT lThumb1
              {
                OFFSET 1.2192 -0.487915 3.41376
                CHANNELS 3 Zrotation Xrotation Yrotation
                JOINT lThumb2
                {
                  OFFSET 3.37035 -0.52449 3.41376
                  CHANNELS 3 Zrotation Xrotation Yrotation
                  End Site
                  {
                    OFFSET 1.78271 -1.18214 1.43049
                  }
                }
              }
              JOINT lIndex1
              {
                OFFSET 7.75947 0.938293 5.60832
                CHANNELS 3 Zrotation Xrotation Yrotation
                JOINT lIndex2
                {
                  OFFSET 2.54057 -0.884171 1.56538
                  CHANNELS 3 Zrotation Xrotation Yrotation
                  End Site
                  {
                    OFFSET 1.62519 -0.234802 1.16502
                  }
                }
              }
              JOINT lMid1
              {
                OFFSET 8.24714 1.18213 3.41376
                CHANNELS 3 Zrotation Xrotation Yrotation
                JOINT lMid2
                {
                  OFFSET 3.10165 -0.590103 1.0647
                  CHANNELS 3 Zrotation Xrotation Yrotation
                  End Site
                  {
                    OFFSET 2.48547 -0.328903 0.83742
                  }
                }
              }
              JOINT lRing1
              {
                OFFSET 8.82822 0.546677 1.51678
                CHANNELS 3 Zrotation Xrotation Yrotation
                JOINT lRing2
                {
                  OFFSET 2.60934 -0.819778 -0.0198488
                  CHANNELS 3 Zrotation Xrotation Yrotation
                  End Site
                  {
                    OFFSET 2.33842 -0.294052 0.168128
                  }
                }
              }
              JOINT lPinky1
              {
                OFFSET 8.27202 -0.0477905 -0.4584
                CHANNELS 3 Zrotation Xrotation Yrotation
                JOINT lPinky2
                {
                  OFFSET 1.82734 -0.647385 -0.700984
                  CHANNELS 3 Zrotation Xrotation Yrotation
                  End Site
                  {
                    OFFSET 1.69225 -0.51767 -0.607171
                  }
                }
              }
            }
          }
        }
      }
    }
  }
  JOINT rButtock
  {
    OFFSET -8.77824 4.35084 1.2192
    CHANNELS 3 Zrotation Xrotation Yrotation
    JOINT rThigh
    {
      OFFSET 0 -1.70687 -2.19456
      CHANNELS 3 Zrotation Xrotation Yrotation
      JOINT rShin
      {
        OFFSET 0 -36.8199 0.73152
        CHANNELS 3 Zrotation Xrotation Yrotation
        JOINT rFoot
        {
          OFFSET 0.73152 -45.1104 -5.12064
          CHANNELS 3 Zrotation Xrotation Yrotation
          End Site
          {
            OFFSET -1.1221 -3.69964 12.103
          }
        }
      }
    }
  }
  JOINT lButtock
  {
    OFFSET 8.77824 4.35084 1.2192
    CHANNELS 3 Zrotation Xrotation Yrotation
    JOINT lThigh
    {
      OFFSET 0 -1.70687 -2.19456
      CHANNELS 3 Zrotation Xrotation Yrotation
      JOINT lShin
      {
        OFFSET 0 -36.8199 0.73152
        CHANNELS 3 Zrotation Xrotation Yrotation
        JOINT lFoot
        {
          OFFSET -0.73152 -45.1104 -5.12064
          CHANNELS 3 Zrotation Xrotation Yrotation
          End Site
          {
            OFFSET 1.1221 -3.69964 12.103
          }
        }
      }
    }
  }
}
MOTION
Frames:	4
Frame Time:	0.00833333
-3.48309 82.7002 42.5589 -8.0092 -1.8454 15.8551 4.0199 10.3557 -0.0783784 -0.713489 -9.86647 0.0924345 2.40615 -2.1104 -2.89647 2.66033 -2.10608 -6.43375 -0.0 0.0 0.0 -0.0 0.0 0.0 -2.74732e-13 -1.90831e-13 2.39536e-13 0.87624 42.4273 53.762 -28.1502 -39.5312 83.0857 -4.66179 -50.5855 -9.84648 -9.22584e-10 3.49067e-09 -1.8649e-09 -1.515e-09 6.09538e-09 -3.24094e-09 -9.2258e-10 3.49067e-09 -1.8649e-09 7.73091 5.47488 0.417314 -9.22583e-10 3.49067e-09 -1.8649e-09 2.90554 0.965183 0.102902 -9.22575e-10 3.49067e-09 -1.8649e-09 10.2786 0.731801 0.0259123 -9.22582e-10 3.49067e-09 -1.86489e-09 2.22167 -0.733487 -0.20892 -2.74727e-13 -1.90835e-13 2.39088e-13 -26.805 49.546 -36.3293 27.9549 -40.646 -85.0872 65.8938 -81.6709 73.7311 3.13946e-10 -1.62354e-09 -9.97381e-10 5.98109e-10 -2.5361e-09 -1.65702e-09 3.13953e-10 -1.62352e-09 -9.97362e-10 -7.73091 5.47488 -0.417314 3.13949e-10 -1.62354e-09 -9.97381e-10 -2.90554 0.965183 -0.102902 3.13939e-10 -1.62354e-09 -9.97385e-10 -10.2786 0.731801 -0.0259123 3.1395e-10 -1.62354e-09 -9.9739e-10 -2.22167 -0.733487 0.20892 -2.03217e-16 0.0 -3.88251e-19 1.71036 -16.1511 22.8783 0.015934 -0.14016 0.137148 -3.94764 -1.84078 -24.2756 2.03217e-16 0.0 3.88251e-19 -2.02899 -15.8775 -50.0841 0.0378876 13.272 0.166023 22.4299 -17.4737 61.3036
-3.51294 82.672 42.7057 -8.0429 -1.6856 15.8405 3.9723 9.75326 -0.140806 -0.792498 -9.79345 0.0523411 2.25667 -1.47636 -2.93331 2.8719 -1.29442 -6.45202 -0.0 0.0 0.0 -0.0 0.0 0.0 -2.76256e-13 -2.01118e-13 1.93926e-13 0.335351 43.0233 53.5838 -27.9313 -41.0638 85.6234 -5.9065 -53.9693 -11.2894 -4.34378e-10 3.4899e-09 -1.63943e-09 -6.81532e-10 6.04304e-09 -2.83074e-09 -4.34375e-10 3.4899e-09 -1.63943e-09 7.73091 5.47488 0.417314 -4.34377e-10 3.48991e-09 -1.63944e-09 2.90554 0.965183 0.102902 -4.3437e-10 3.48991e-09 -1.63943e-09 10.2786 0.731801 0.0259123 -4.34377e-10 3.48991e-09 -1.63942e-09 2.22167 -0.733487 -0.20892 -2.76282e-13 -2.01122e-13 1.93472e-13 -25.8965 49.7382 -36.8988 27.7727 -41.6186 -86.7481 93.5041 -81.6373 101.56 6.32688e-12 -6.30993e-10 -3.85738e-10 4.03471e-11 -9.3196e-10 -6.41051e-10 6.33224e-12 -6.30974e-10 -3.85721e-10 -7.73091 5.47488 -0.417314 6.32938e-12 -6.30995e-10 -3.85738e-10 -2.90554 0.965183 -0.102902 6.31988e-12 -6.30992e-10 -3.85742e-10 -10.2786 0.731801 -0.0259123 6.33055e-12 -6.30991e-10 -3.85748e-10 -2.22167 -0.733487 0.20892 -2.03217e-16 0.0 -3.88251e-19 1.69524 -15.9323 22.7532 0.0175812 -0.131986 0.144331 -3.9581 -1.85977 -24.2566 2.03217e-16 0.0 3.88251e-19 -2.07929 -15.598 -50.2361 0.0370168 13.2332 0.172928 22.4051 -17.409 61.4138
-3.52184 82.6359 42.9104 -7.9892 -1.558 15.674 3.95756 9.05518 -0.224163 -0.835022 -9.77236 0.00802392 2.02056 -0.539149 -2.99735 3.10565 -0.409373 -6.48652 -0.0 0.0 0.0 -0.0 0.0 0.0 -2.62187e-13 -1.40539e-13 1.03877e-13 -0.725356 43.2539 53.2733 -27.5454 -42.7205 88.5703 -6.20437 -54.8669 -11.6639 3.46501e-10 2.98547e-09 -1.19925e-09 6.45531e-10 5.09412e-09 -2.0391e-09 3.46504e-10 2.98547e-09 -1.19926e-09 7.73091 5.47488 0.417314 3.46502e-10 2.98547e-09 -1.19926e-09 2.90554 0.965183 0.102902 3.46508e-10 2.98547e-09 -1.19925e-09 10.2786 0.731801 0.0259123 3.46499e-10 2.98548e-09 -1.19924e-09 2.22167 -0.733487 -0.20892 -2.62274e-13 -1.40543e-13 1.03452e-13 -24.1615 49.668 -37.8518 27.4967 -42.7017 -88.7207 97.688 -81.5041 105.794 -5.91706e-10 1.65634e-10 3.31348e-10 -1.02855e-09 2.41196e-10 5.29079e-10 -5.91704e-10 1.65646e-10 3.31361e-10 -7.73091 5.47488 -0.417314 -5.91704e-10 1.65631e-10 3.31347e-10 -2.90554 0.965183 -0.102902 -5.91712e-10 1.65635e-10 3.31345e-10 -10.2786 0.731801 -0.0259123 -5.91702e-10 1.65637e-10 3.31339e-10 -2.22167 -0.733487 0.20892 -2.03217e-16 0.0 -3.88251e-19 1.6551 -15.6495 22.6043 0.0187862 -0.131528 0.150518 -3.96448 -1.86044 -24.2929 2.03217e-16 0.0 3.88251e-19 -2.1444 -15.2833 -50.3606 0.0349067 13.1688 0.175179 22.2131 -17.2825 61.418
-3.51208 82.6094 43.1297 -7.8862 -1.378 15.3991 3.97342 8.32829 -0.324106 -0.857454 -9.76708 -0.0400551 1.74834 0.606942 -3.07144 3.34297 0.515192 -6.5315 -0.0 0.0 0.0 -0.0 0.0 0.0 -2.40054e-13 -4.90488e-14 5.92083e-15 -1.98107 42.9743 52.7034 -26.9858 -44.2762 91.7015 -6.04537 -54.7819 -11.5393 1.07328e-09 2.2874e-09 -7.39891e-10 1.87813e-09 3.81751e-09 -1.21767e-09 1.07329e-09 2.2874e-09 -7.39899e-10 7.73091 5.47488 0.417314 1.07328e-09 2.2874e-09 -7.39896e-10 2.90554 0.965183 0.102902 1.07329e-09 2.2874e-09 -7.39889e-10 10.2786 0.731801 0.0259123 1.07328e-09 2.2874e-09 -7.39877e-10 2.22167 -0.733487 -0.20892 -2.40203e-13 -4.90522e-14 5.53763e-15 -21.9384 49.0446 -38.876 27.1391 -43.7426 -90.797 93.3766 -81.7695 101.471 -1.17336e-09 7.4554e-10 9.49941e-10 -2.06597e-09 1.03804e-09 1.5318e-09 -1.17336e-09 7.45545e-10 9.4995e-10 -7.73091 5.47488 -0.417314 -1.17335e-09 7.45538e-10 9.49941e-10 -2.90554 0.965183 -0.102902 -1.17336e-09 7.45541e-10 9.49941e-10 -10.2786 0.731801 -0.0259123 -1.17335e-09 7.45544e-10 9.49934e-10 -2.22167 -0.733487 0.20892 -2.03217e-16 0.0 -3.88251e-19 1.62101 -15.298 22.449 0.0196426 -0.133909 0.156352 -3.98135 -1.875 -24.3662 2.03217e-16 0.0 3.88251e-19 -2.17641 -14.9488 -50.3611 0.0321847 13.0889 0.169684 21.8094 -17.0913 61.2487
